<svg xmlns="http://www.w3.org/2000/svg">

    <symbol id="arrow-up" viewBox="0 0 384 512">
        <path d="M214.6 41.4c-12.5-12.5-32.8-12.5-45.3 0l-160 160c-12.5 12.5-12.5 32.8 0 45.3s32.8 12.5 45.3 0L160 141.2V448c0 17.7 14.3 32 32 32s32-14.3 32-32V141.2L329.4 246.6c12.5 12.5 32.8 12.5 45.3 0s12.5-32.8 0-45.3l-160-160z" />
    </symbol>

    <symbol id="bars" viewBox="0 0 448 512">
        <path d="M0 96C0 78.3 14.3 64 32 64H416c17.7 0 32 14.3 32 32s-14.3 32-32 32H32C14.3 128 0 113.7 0 96zM0 256c0-17.7 14.3-32 32-32H416c17.7 0 32 14.3 32 32s-14.3 32-32 32H32c-17.7 0-32-14.3-32-32zM448 416c0 17.7-14.3 32-32 32H32c-17.7 0-32-14.3-32-32s14.3-32 32-32H416c17.7 0 32 14.3 32 32z" />
    </symbol>

    <symbol id="envelope" viewBox="0 0 512 512">
        <path d="M48 64C21.5 64 0 85.5 0 112c0 15.1 7.1 29.3 19.2 38.4L236.8 313.6c11.4 8.5 27 8.5 38.4 0L492.8 150.4c12.1-9.1 19.2-23.3 19.2-38.4c0-26.5-21.5-48-48-48H48zM0 176V384c0 35.3 28.7 64 64 64H448c35.3 0 64-28.7 64-64V176L294.4 339.2c-22.8 17.1-54 17.1-76.8 0L0 176z" />
    </symbol>

    <symbol id="globe" viewBox="0 0 512 512">
        <path d="M352 256c0 22.2-1.2 43.6-3.3 64H163.3c-2.2-20.4-3.3-41.8-3.3-64s1.2-43.6 3.3-64H348.7c2.2 20.4 3.3 41.8 3.3 64zm28.8-64H503.9c5.3 20.5 8.1 41.9 8.1 64s-2.8 43.5-8.1 64H380.8c2.1-20.6 3.2-42 3.2-64s-1.1-43.4-3.2-64zm112.6-32H376.7c-10-63.9-29.8-117.4-55.3-151.6c78.3 20.7 142 77.5 171.9 151.6zm-149.1 0H167.7c6.1-36.4 15.5-68.6 27-94.7c10.5-23.6 22.2-40.7 33.5-51.5C239.4 3.2 248.7 0 256 0s16.6 3.2 27.8 13.8c11.3 10.8 23 27.9 33.5 51.5c11.6 26 20.9 58.2 27 94.7zm-209 0H18.6C48.6 85.9 112.2 29.1 190.6 8.4C165.1 42.6 145.3 96.1 135.3 160zM8.1 192H131.2c-2.1 20.6-3.2 42-3.2 64s1.1 43.4 3.2 64H8.1C2.8 299.5 0 278.1 0 256s2.8-43.5 8.1-64zM194.7 446.6c-11.6-26-20.9-58.2-27-94.6H344.3c-6.1 36.4-15.5 68.6-27 94.6c-10.5 23.6-22.2 40.7-33.5 51.5C272.6 508.8 263.3 512 256 512s-16.6-3.2-27.8-13.8c-11.3-10.8-23-27.9-33.5-51.5zM135.3 352c10 63.9 29.8 117.4 55.3 151.6C112.2 482.9 48.6 426.1 18.6 352H135.3zm358.1 0c-30 74.1-93.6 130.9-171.9 151.6c25.5-34.2 45.2-87.7 55.3-151.6H493.4z" />
    </symbol>

    <symbol id="location-dot" viewBox="0 0 384 512">
        <path d="M215.7 499.2C267 435 384 279.4 384 192C384 86 298 0 192 0S0 86 0 192c0 87.4 117 243 168.3 307.2c12.3 15.3 35.1 15.3 47.4 0zM192 128a64 64 0 1 1 0 128 64 64 0 1 1 0-128z" />
    </symbol>

    <symbol id="phone" viewBox="0 0 512 512">
        <path d="M164.9 24.6c-7.7-18.6-28-28.5-47.4-23.2l-88 24C12.1 30.2 0 46 0 64C0 311.4 200.6 512 448 512c18 0 33.8-12.1 38.6-29.5l24-88c5.3-19.4-4.6-39.7-23.2-47.4l-96-40c-16.3-6.8-35.2-2.1-46.3 11.6L304.7 368C234.3 334.7 177.3 277.7 144 207.3L193.3 167c13.7-11.2 18.4-30 11.6-46.3l-40-96z" />
    </symbol>

    <symbol id="quote-left" viewBox="0 0 448 512">
        <path d="M0 216C0 149.7 53.7 96 120 96h8c17.7 0 32 14.3 32 32s-14.3 32-32 32h-8c-30.9 0-56 25.1-56 56v8h64c35.3 0 64 28.7 64 64v64c0 35.3-28.7 64-64 64H64c-35.3 0-64-28.7-64-64V320 288 216zm256 0c0-66.3 53.7-120 120-120h8c17.7 0 32 14.3 32 32s-14.3 32-32 32h-8c-30.9 0-56 25.1-56 56v8h64c35.3 0 64 28.7 64 64v64c0 35.3-28.7 64-64 64H320c-35.3 0-64-28.7-64-64V320 288 216z" />
    </symbol>

    <symbol id="x" viewBox="0 0 384 512">
        <path d="M376.6 84.5c11.3-13.6 9.5-33.8-4.1-45.1s-33.8-9.5-45.1 4.1L192 206 56.6 43.5C45.3 29.9 25.1 28.1 11.5 39.4S-3.9 70.9 7.4 84.5L150.3 256 7.4 427.5c-11.3 13.6-9.5 33.8 4.1 45.1s33.8 9.5 45.1-4.1L192 306 327.4 468.5c11.3 13.6 31.5 15.4 45.1 4.1s15.4-31.5 4.1-45.1L233.7 256 376.6 84.5z"/>
    </symbol>

    <!-- SOCIAL LINKS -->

    <symbol id="facebook" viewBox="0 0 666.66668 666.66717">
        <defs id="defs13">
            <clipPath clipPathUnits="userSpaceOnUse" id="clipPath25">
                <path d="M 0,700 H 700 V 0 H 0 Z" id="path23"/>
            </clipPath>
        </defs>
        <g id="g17" transform="matrix(1.3333333,0,0,-1.3333333,-133.33333,799.99999)">
            <g id="g19">
                <g id="g21" clip-path="url(#clipPath25)">
                    <g id="g27" transform="translate(600,350)">
                        <path d="m 0,0 c 0,138.071 -111.929,250 -250,250 -138.071,0 -250,-111.929 -250,-250 0,-117.245 80.715,-215.622 189.606,-242.638 v 166.242 h -51.552 V 0 h 51.552 v 32.919 c 0,85.092 38.508,124.532 122.048,124.532 15.838,0 43.167,-3.105 54.347,-6.211 V 81.986 c -5.901,0.621 -16.149,0.932 -28.882,0.932 -40.993,0 -56.832,-15.528 -56.832,-55.9 V 0 h 81.659 l -14.028,-76.396 h -67.631 V -248.169 C -95.927,-233.218 0,-127.818 0,0" style="fill:#0866ff;fill-opacity:1;fill-rule:nonzero;stroke:none" id="path29"/>
                    </g>
                    <g id="g31" transform="translate(447.9175,273.6036)">
                        <path d="M 0,0 14.029,76.396 H -67.63 v 27.019 c 0,40.372 15.838,55.899 56.831,55.899 12.733,0 22.981,-0.31 28.882,-0.931 v 69.253 c -11.18,3.106 -38.509,6.212 -54.347,6.212 -83.539,0 -122.048,-39.441 -122.048,-124.533 V 76.396 h -51.552 V 0 h 51.552 v -166.242 c 19.343,-4.798 39.568,-7.362 60.394,-7.362 10.254,0 20.358,0.632 30.288,1.831 L -67.63,0 Z" style="fill:#ffffff;fill-opacity:1;fill-rule:nonzero;stroke:none" id="path33"/>
                    </g>
                </g>
            </g>
        </g>
    </symbol>

    <symbol id="tiktok" viewBox="-10 -10 68 68">
        <g fill="none" fill-rule="evenodd">
            <rect x="-10" y="-10" width="68" height="68" fill="black"/>
            <path fill="#00F2EA" d="M20.023 18.111v-1.703a13.17 13.17 0 0 0-1.784-.13c-7.3 0-13.239 5.94-13.239 13.24 0 4.478 2.238 8.442 5.652 10.839a13.187 13.187 0 0 1-3.555-9.014c0-7.196 5.77-13.064 12.926-13.232"/>
            <path fill="#00F2EA" d="M20.335 37.389c3.257 0 5.914-2.591 6.035-5.82l.011-28.825h5.266a9.999 9.999 0 0 1-.17-1.825h-7.192l-.012 28.826c-.12 3.228-2.778 5.818-6.034 5.818a6.006 6.006 0 0 1-2.805-.694 6.037 6.037 0 0 0 4.901 2.52M41.484 12.528v-1.602a9.943 9.943 0 0 1-5.449-1.62 10.011 10.011 0 0 0 5.45 3.222"/>
            <path fill="#FF004F" d="M36.035 9.305a9.962 9.962 0 0 1-2.461-6.56h-1.927a10.025 10.025 0 0 0 4.388 6.56M18.239 23.471a6.053 6.053 0 0 0-6.046 6.046 6.05 6.05 0 0 0 3.24 5.352 6.007 6.007 0 0 1-1.144-3.526 6.053 6.053 0 0 1 6.046-6.047c.623 0 1.22.103 1.784.28v-7.343a13.17 13.17 0 0 0-1.784-.13c-.105 0-.208.006-.312.008v5.64a5.944 5.944 0 0 0-1.784-.28"/>
            <path fill="#FF004F" d="M41.484 12.528v5.59c-3.73 0-7.185-1.193-10.007-3.218v14.617c0 7.3-5.938 13.239-13.238 13.239-2.821 0-5.437-.89-7.587-2.4a13.201 13.201 0 0 0 9.683 4.225c7.3 0 13.239-5.939 13.239-13.238V16.726a17.107 17.107 0 0 0 10.007 3.218V12.75c-.72 0-1.42-.078-2.097-.223"/>
            <path fill="#FFF" d="M31.477 29.517V14.9a17.103 17.103 0 0 0 10.007 3.218v-5.59a10.011 10.011 0 0 1-5.449-3.223 10.025 10.025 0 0 1-4.388-6.56h-5.266L26.37 31.57c-.121 3.228-2.778 5.819-6.035 5.819a6.038 6.038 0 0 1-4.901-2.52 6.05 6.05 0 0 1-3.241-5.352 6.053 6.053 0 0 1 6.046-6.046c.622 0 1.219.102 1.784.28v-5.64c-7.156.168-12.926 6.036-12.926 13.232 0 3.48 1.352 6.648 3.555 9.014a13.16 13.16 0 0 0 7.587 2.399c7.3 0 13.238-5.939 13.238-13.239"/>
        </g>
    </symbol>

    <symbol id="hipages" viewBox="0 0 280 280">
        <path d="M0 0 C92.4 0 184.8 0 280 0 C280 92.4 280 184.8 280 280 C187.6 280 95.2 280 0 280 C0 187.6 0 95.2 0 0 Z " fill="#F96F12" transform="translate(0,0)"/>
        <path d="M0 0 C1.09724177 0.86734349 2.18840155 1.74243487 3.2734375 2.625 C6.2784052 5.03464391 9.20844254 7.36883043 12.546875 9.3125 C13.24039063 9.745625 13.93390625 10.17875 14.6484375 10.625 C14.6484375 11.285 14.6484375 11.945 14.6484375 12.625 C15.3909375 12.8725 16.1334375 13.12 16.8984375 13.375 C19.90823467 14.74308962 21.32653856 16.30310106 23.6484375 18.625 C25.25909553 19.54537602 26.87170778 20.4627567 28.5 21.3515625 C33.10052232 24.07841755 37.54486842 27.19670179 41.6484375 30.625 C41.6484375 31.285 41.6484375 31.945 41.6484375 32.625 C42.38191406 32.72296875 43.11539063 32.8209375 43.87109375 32.921875 C47.00421981 33.71507147 48.6003015 34.8368671 51.0859375 36.875 C52.24802734 37.81859375 52.24802734 37.81859375 53.43359375 38.78125 C54.16449219 39.3896875 54.89539063 39.998125 55.6484375 40.625 C56.24527344 41.1096875 56.84210938 41.594375 57.45703125 42.09375 C58.87112013 43.25041123 60.26136222 44.43607834 61.6484375 45.625 C62.18082031 46.06199219 62.71320313 46.49898437 63.26171875 46.94921875 C66.57783083 50.95657673 65.7342474 57.45217073 65.5390625 62.39453125 C64.92105922 67.30177156 64.92105922 67.30177156 63.6484375 69.625 C62.32559715 70.36143091 60.98388754 71.06432997 59.63157654 71.74513245 C56.11562951 73.89501725 55.75453295 74.21635119 54.65516663 78.45079041 C54.61750132 79.96404244 54.62343166 81.47877462 54.66430664 82.99194336 C54.65499115 83.8218428 54.64567566 84.65174225 54.63607788 85.50679016 C54.6145052 88.24410252 54.64898556 90.97771394 54.68359375 93.71484375 C54.67861137 95.62147789 54.66996706 97.52810567 54.65782166 99.43470764 C54.63504693 104.45192035 54.65912653 109.46782184 54.69384766 114.48492432 C54.72765095 120.57229322 54.70782706 126.65967133 54.69480801 132.74708652 C54.68553928 137.48537354 54.68455891 142.22316631 54.70899963 146.96141052 C54.7119252 147.83495178 54.71485077 148.70849304 54.71786499 149.60850525 C54.72362218 151.23113955 54.73318309 152.8537671 54.74745178 154.47634888 C54.75762897 158.63711183 54.46680376 162.54396357 53.6484375 166.625 C52.6584375 166.625 51.6684375 166.625 50.6484375 166.625 C50.3803125 167.3675 50.1121875 168.11 49.8359375 168.875 C48.66726657 171.58139585 47.69250581 173.50522545 45.6484375 175.625 C42.9609375 176.375 42.9609375 176.375 40.6484375 176.625 C40.6484375 177.285 40.6484375 177.945 40.6484375 178.625 C35.24252914 180.86171086 30.40249947 180.9150115 24.6550293 180.8996582 C23.16847336 180.9073246 23.16847336 180.9073246 21.65188599 180.91514587 C18.38374754 180.92901755 15.1158206 180.92808667 11.84765625 180.92578125 C9.56850608 180.92966996 7.28935664 180.93400499 5.01020813 180.93876648 C0.23472748 180.94622383 -4.54067923 180.94594123 -9.31616211 180.94067383 C-15.42244475 180.93488482 -21.52842352 180.95179905 -27.63465595 180.9750185 C-32.34197242 180.98978395 -37.04921622 180.99062361 -41.75655174 180.98750877 C-44.00710844 180.98802073 -46.25766935 180.99323482 -48.50820351 181.00332069 C-51.66232387 181.01571985 -54.81585901 181.00887189 -57.9699707 180.99731445 C-58.89131302 181.00495819 -59.81265533 181.01260193 -60.76191711 181.02047729 C-66.48583993 180.97434761 -72.28777899 180.53473944 -77.3515625 177.625 C-78.46725941 175.59520435 -78.46725941 175.59520435 -79.3515625 173.625 C-81.3851573 172.35695434 -81.3851573 172.35695434 -83.3515625 171.625 C-83.3515625 170.965 -83.3515625 170.305 -83.3515625 169.625 C-84.0115625 169.625 -84.6715625 169.625 -85.3515625 169.625 C-88.55427977 163.46567042 -89.93307398 158.53763052 -89.80566406 151.61694336 C-89.80624817 150.76706848 -89.80683228 149.9171936 -89.80743408 149.04156494 C-89.80467371 146.26555828 -89.77368033 143.49066003 -89.7421875 140.71484375 C-89.7347178 138.77715135 -89.72902831 136.83945134 -89.72503662 134.90174866 C-89.70983772 129.82665786 -89.67060591 124.75203229 -89.6262207 119.67712402 C-89.58514353 114.48858939 -89.56699912 109.29997885 -89.546875 104.11132812 C-89.50410569 93.94901548 -89.4359246 83.78704658 -89.3515625 73.625 C-90.30691895 73.33238281 -91.26227539 73.03976563 -92.24658203 72.73828125 C-96.56982943 71.18819412 -97.44001384 69.17045503 -99.44921875 65.22265625 C-100.9107282 61.01528055 -100.76396399 57.01478475 -100.3515625 52.625 C-99.6915625 52.625 -99.0315625 52.625 -98.3515625 52.625 C-98.2690625 52.08875 -98.1865625 51.5525 -98.1015625 51 C-95.58017667 43.01561153 -89.18991435 38.9317067 -82.3515625 34.625 C-80.70458218 33.9110826 -79.04280349 33.22660297 -77.3515625 32.625 C-77.3515625 31.965 -77.3515625 31.305 -77.3515625 30.625 C-76.6915625 30.625 -76.0315625 30.625 -75.3515625 30.625 C-75.3515625 29.965 -75.3515625 29.305 -75.3515625 28.625 C-74.42923828 28.13580078 -74.42923828 28.13580078 -73.48828125 27.63671875 C-72.68003906 27.19972656 -71.87179688 26.76273438 -71.0390625 26.3125 C-70.23855469 25.88324219 -69.43804687 25.45398438 -68.61328125 25.01171875 C-66.49839351 23.71502592 -65.05523078 22.40147462 -63.3515625 20.625 C-62.4853125 20.109375 -61.6190625 19.59375 -60.7265625 19.0625 C-58.23965875 17.84587094 -58.23965875 17.84587094 -57.3515625 15.625 C-52.8515625 12.625 -52.8515625 12.625 -50.3515625 12.625 C-50.3515625 11.965 -50.3515625 11.305 -50.3515625 10.625 C-48.93041992 9.43579102 -48.93041992 9.43579102 -46.95703125 8.12890625 C-46.24869141 7.65259766 -45.54035156 7.17628906 -44.81054688 6.68554688 C-44.06095703 6.19119141 -43.31136719 5.69683594 -42.5390625 5.1875 C-41.07223936 4.21260707 -39.60732327 3.23483737 -38.14453125 2.25390625 C-37.4899292 1.82150635 -36.83532715 1.38910645 -36.16088867 0.94360352 C-34.36867186 -0.36253102 -32.91394814 -1.80873885 -31.3515625 -3.375 C-20.98090424 -7.49243757 -8.93703437 -6.67844031 0 0 Z " fill="#FEFAF8" transform="translate(159.3515625,47.375)"/>
        <path d="M0 0 C1.258125 0.01417969 2.51625 0.02835937 3.8125 0.04296875 C5.070625 0.04941406 6.32875 0.05585937 7.625 0.0625 C10.8125 0.23046875 10.8125 0.23046875 12.8125 1.23046875 C13.97177528 4.70829458 13.92563066 7.41850132 13.91015625 11.0859375 C13.9087413 11.74757401 13.90732635 12.40921051 13.90586853 13.09089661 C13.90027996 15.19996703 13.88772965 17.30893052 13.875 19.41796875 C13.86998352 20.84960784 13.86542087 22.2812486 13.86132812 23.71289062 C13.8503143 27.21878463 13.83305755 30.72461625 13.8125 34.23046875 C14.66827637 33.94751953 15.52405273 33.66457031 16.40576172 33.37304688 C27.79381227 29.71679027 38.19345788 28.17378789 49.59765625 32.8125 C52.74155752 34.82526219 53.89080673 37.06573987 55.12890625 40.5234375 C55.67693064 42.43937946 55.67693064 42.43937946 57.8125 43.23046875 C57.85882731 50.87127004 57.89437121 58.51205678 57.91612434 66.1529665 C57.92656444 69.70090506 57.94072763 73.24874758 57.96337891 76.79663086 C57.98925331 80.87484666 57.9989709 84.95296146 58.0078125 89.03125 C58.01813507 90.30631912 58.02845764 91.58138824 58.03909302 92.89509583 C58.03931961 94.66659248 58.03931961 94.66659248 58.03955078 96.47387695 C58.043992 97.51534378 58.04843323 98.55681061 58.05300903 99.62983704 C57.8125 102.23046875 57.8125 102.23046875 55.8125 105.23046875 C53.05708159 105.50660443 50.56158898 105.603045 47.8125 105.54296875 C46.70648438 105.54780273 46.70648438 105.54780273 45.578125 105.55273438 C40.07957949 105.49754824 40.07957949 105.49754824 37.8125 103.23046875 C37.57199097 100.82601929 37.57199097 100.82601929 37.58544922 97.77099609 C37.58560028 96.62996429 37.58575134 95.4889325 37.58590698 94.31332397 C37.59622955 93.07684113 37.60655212 91.84035828 37.6171875 90.56640625 C37.6200174 89.30406158 37.62284729 88.04171692 37.62576294 86.74111938 C37.63507869 83.38399931 37.65305165 80.02714963 37.6751709 76.67010498 C37.6956245 73.24493753 37.7047636 69.81974216 37.71484375 66.39453125 C37.73693542 59.67310204 37.77043623 52.95180102 37.8125 46.23046875 C35.10101738 46.45994835 32.39530912 46.71325075 29.6875 46.98046875 C28.92695312 47.04234375 28.16640625 47.10421875 27.3828125 47.16796875 C22.30195586 47.69357461 18.46603256 48.38662195 14.8125 52.23046875 C13.9349969 55.96837599 13.99898603 59.62829411 14.04296875 63.453125 C14.03163406 64.55015244 14.02029938 65.64717987 14.00862122 66.77745056 C13.97786537 70.28310295 13.98774972 73.7872267 14 77.29296875 C13.98583702 80.80178684 13.96346229 84.31044708 13.93782043 87.81919861 C13.9247698 90.00272745 13.92003907 92.18632474 13.92436218 94.36988831 C13.92378311 95.35778854 13.92320404 96.34568878 13.92260742 97.36352539 C13.92516037 98.23304337 13.92771332 99.10256134 13.93034363 99.99842834 C13.8125 102.23046875 13.8125 102.23046875 12.8125 105.23046875 C9.99993719 105.25731187 7.18762759 105.27723063 4.375 105.29296875 C3.57255859 105.30134766 2.77011719 105.30972656 1.94335938 105.31835938 C-0.10045221 105.32698305 -2.14433902 105.28275025 -4.1875 105.23046875 C-6.14755447 103.27041428 -5.32114313 100.26534745 -5.33413696 97.6552124 C-5.33368378 96.70817444 -5.33323059 95.76113647 -5.33276367 94.78540039 C-5.33612228 93.79360275 -5.3394809 92.80180511 -5.34294128 91.779953 C-5.35248286 88.48349779 -5.35439598 85.18709319 -5.35546875 81.890625 C-5.35867905 79.60998005 -5.36204294 77.3293353 -5.36555481 75.0486908 C-5.37155408 70.26105268 -5.37339389 65.47343263 -5.37280273 60.68579102 C-5.37270105 54.53726812 -5.38635585 48.38886056 -5.40357494 42.24036503 C-5.41466854 37.52818769 -5.41672276 32.81603847 -5.41619301 28.10384941 C-5.41737702 25.83634481 -5.42182218 23.56883956 -5.42952538 21.30134773 C-5.43927235 18.13579246 -5.43646826 14.9704906 -5.43041992 11.80493164 C-5.43603943 10.85991791 -5.44165894 9.91490417 -5.44744873 8.94125366 C-5.44325424 8.08170578 -5.43905975 7.2221579 -5.43473816 6.33656311 C-5.43528293 5.58752244 -5.43582769 4.83848177 -5.43638897 4.0667429 C-4.95280743 0.49893397 -3.34624616 0.24194672 0 0 Z " fill="#F9731A" transform="translate(98.1875,91.76953125)"/>
        <path d="M0 0 C1.1446875 0.00386719 2.289375 0.00773437 3.46875 0.01171875 C6.5 0.3125 6.5 0.3125 9.5 2.3125 C9.86076355 5.134552 9.86076355 5.134552 9.84057617 8.78173828 C9.84123329 9.77704056 9.84123329 9.77704056 9.84190369 10.79244995 C9.83981068 12.989535 9.81645699 15.18586049 9.79296875 17.3828125 C9.78737458 18.9045266 9.78310364 20.4262461 9.78010559 21.94796753 C9.76864261 25.95614499 9.7391633 29.96399712 9.70599365 33.9720459 C9.67532384 38.06074624 9.66160689 42.14949907 9.64648438 46.23828125 C9.61429467 54.26317025 9.56308116 62.28779468 9.5 70.3125 C8.84 70.3125 8.18 70.3125 7.5 70.3125 C7.5 70.9725 7.5 71.6325 7.5 72.3125 C5.04137599 72.36633848 2.5839245 72.40609038 0.125 72.4375 C-0.57367188 72.45425781 -1.27234375 72.47101563 -1.9921875 72.48828125 C-3.82897486 72.50594267 -5.66601963 72.41553261 -7.5 72.3125 C-10.27661248 69.53588752 -9.75943041 67.87194438 -9.7746582 63.98266602 C-9.77976913 63.33370361 -9.78488007 62.68474121 -9.79014587 62.01611328 C-9.80407115 59.8661177 -9.80308292 57.71644163 -9.80078125 55.56640625 C-9.80466672 54.07429382 -9.80900107 52.58218251 -9.81376648 51.09007263 C-9.82123508 47.96032122 -9.82093293 44.8306826 -9.81567383 41.70092773 C-9.80987967 37.68791101 -9.82680535 33.67535589 -9.8500185 29.6624155 C-9.86474302 26.58006587 -9.86562929 23.49782771 -9.86250877 20.41544914 C-9.86302268 18.93585229 -9.86827346 17.45624931 -9.87832069 15.97668648 C-9.89064297 13.90806126 -9.88391985 11.84033903 -9.87231445 9.77172852 C-9.87294388 8.59417496 -9.8735733 7.4166214 -9.8742218 6.2033844 C-9.5 3.3125 -9.5 3.3125 -8.16618347 1.4315033 C-5.52424637 -0.34281291 -3.13019599 -0.04582494 0 0 Z " fill="#F97116" transform="translate(181.5,123.6875)"/>
        <path d="M0 0 C1.1446875 0.00386719 2.289375 0.00773437 3.46875 0.01171875 C6.5 0.3125 6.5 0.3125 9.5 2.3125 C9.8984375 5.46484375 9.8984375 5.46484375 9.875 9.25 C9.88273437 10.49652344 9.89046875 11.74304688 9.8984375 13.02734375 C9.5 16.3125 9.5 16.3125 8.41796875 18.23046875 C5.44572121 19.90727643 2.8161546 19.70846373 -0.5625 19.6875 C-2.43615234 19.69910156 -2.43615234 19.69910156 -4.34765625 19.7109375 C-5.38792969 19.57945313 -6.42820313 19.44796875 -7.5 19.3125 C-9.87184142 15.75473788 -9.79824394 14.03229393 -9.8125 9.8125 C-9.82925781 8.6678125 -9.84601563 7.523125 -9.86328125 6.34375 C-9.5 3.3125 -9.5 3.3125 -8.38671875 1.42578125 C-5.57623783 -0.23257706 -3.23434311 -0.04734962 0 0 Z " fill="#F9751C" transform="translate(181.5,93.6875)"/>
        <path d="M0 0 C0.66 0.33 1.32 0.66 2 1 C2 33.34 2 65.68 2 99 C5.63 99.33 9.26 99.66 13 100 C13 83.83 13 67.66 13 51 C13.66 51 14.32 51 15 51 C15.02529373 57.94172388 15.04284304 64.88343594 15.05493164 71.82519531 C15.05996959 74.18815556 15.06680008 76.55111268 15.07543945 78.9140625 C15.08752854 82.30469535 15.09323359 85.69528709 15.09765625 89.0859375 C15.10281754 90.14743011 15.10797882 91.20892273 15.11329651 92.30258179 C15.11340981 93.77388046 15.11340981 93.77388046 15.11352539 95.27490234 C15.115746 96.14094086 15.11796661 97.00697937 15.12025452 97.89926147 C15 100 15 100 14 102 C11.68756208 102.02685412 9.3750373 102.04632841 7.0625 102.0625 C5.77472656 102.07410156 4.48695312 102.08570313 3.16015625 102.09765625 C0 102 0 102 -1 101 C-1.10062026 98.04349079 -1.13614863 95.11030421 -1.12939453 92.15332031 C-1.13114685 91.22486298 -1.13289917 90.29640564 -1.13470459 89.33981323 C-1.13912653 86.25256512 -1.13618296 83.16537375 -1.1328125 80.078125 C-1.13348567 77.93918853 -1.13445581 75.80025213 -1.13571167 73.66131592 C-1.13718929 69.16873448 -1.13503288 64.67617288 -1.13037109 60.18359375 C-1.1246875 54.42550696 -1.1279437 48.66746692 -1.13394356 42.90938187 C-1.13755916 38.48789112 -1.13640574 34.06641143 -1.13381577 29.64492035 C-1.13314855 27.52224472 -1.13396775 25.39956808 -1.13629532 23.27689362 C-1.13883667 20.30598806 -1.13495963 17.33515777 -1.12939453 14.36425781 C-1.13141876 13.48613434 -1.13344299 12.60801086 -1.13552856 11.70327759 C-1.12154057 7.66938904 -1.0111694 3.93590115 0 0 Z " fill="#F96B0D" transform="translate(95,94)"/>
        <path d="M0 0 C1.93166016 0.01740234 1.93166016 0.01740234 3.90234375 0.03515625 C5.19269531 0.04417969 6.48304687 0.05320312 7.8125 0.0625 C8.81152344 0.07410156 9.81054688 0.08570312 10.83984375 0.09765625 C10.83984375 0.42765625 10.83984375 0.75765625 10.83984375 1.09765625 C9.60234375 1.24203125 8.36484375 1.38640625 7.08984375 1.53515625 C4.80436521 1.81377466 2.69475137 2.13583846 0.46484375 2.72265625 C-1.16015625 3.09765625 -1.16015625 3.09765625 -3.16015625 2.09765625 C-3.16015625 3.74765625 -3.16015625 5.39765625 -3.16015625 7.09765625 C-3.49015625 7.09765625 -3.82015625 7.09765625 -4.16015625 7.09765625 C-4.20269981 5.09810879 -4.20096408 3.09723989 -4.16015625 1.09765625 C-3.16015625 0.09765625 -3.16015625 0.09765625 0 0 Z " fill="#F97F2E" transform="translate(98.16015625,91.90234375)"/>
        <path d="M0 0 C1 3 1 3 0 6 C-0.66 6 -1.32 6 -2 6 C-2.20625 6.639375 -2.4125 7.27875 -2.625 7.9375 C-4 10 -4 10 -7.125 10.75 C-8.548125 10.87375 -8.548125 10.87375 -10 11 C-9.34 10.34 -8.68 9.68 -8 9 C-7.01 9 -6.02 9 -5 9 C-4.731875 8.443125 -4.46375 7.88625 -4.1875 7.3125 C-2.89877353 4.80287477 -1.47073522 2.40665764 0 0 Z " fill="#FBA164" transform="translate(210,214)"/>
        <path d="M0 0 C0.66 0 1.32 0 2 0 C1.67 0.99 1.34 1.98 1 3 C0.01 3 -0.98 3 -2 3 C-2.33 3.99 -2.66 4.98 -3 6 C-5.0625 7.1875 -5.0625 7.1875 -7 8 C-6.6875 6.125 -6.6875 6.125 -6 4 C-3 2 -3 2 0 2 C0 1.34 0 0.68 0 0 Z " fill="#F97821" transform="translate(104,60)"/>
        <path d="M0 0 C2.31 0.33 4.62 0.66 7 1 C6.67 2.32 6.34 3.64 6 5 C3.98079663 3.69593116 1.98075027 2.36176581 0 1 C0 0.67 0 0.34 0 0 Z " fill="#F97F2E" transform="translate(194,73)"/>
    </symbol>

    <symbol id="yellowpages" viewBox="0 0 1350 1350">
        <path d="M0 0 C446.16 0 892.32 0 1352 0 C1352 445.5 1352 891 1352 1350 C905.84 1350 459.68 1350 0 1350 C0 904.5 0 459 0 0 Z " fill="#FAEE4E" transform="translate(0,0)"/>
        <path d="M0 0 C37.66580297 -0.09158772 75.33158915 -0.16205507 112.99748098 -0.20426132 C117.44591198 -0.20926405 121.89434276 -0.21444135 126.34277344 -0.21972656 C127.22836292 -0.2207758 128.1139524 -0.22182505 129.02637793 -0.22290608 C143.35917882 -0.24030365 157.69191544 -0.27183778 172.02467822 -0.30861118 C186.73522392 -0.34603863 201.445736 -0.36823967 216.15632737 -0.37635398 C225.23102455 -0.38183801 234.30554003 -0.39914876 243.38018127 -0.43166587 C249.6059457 -0.45283603 255.83161642 -0.45919439 262.05741422 -0.45400551 C265.64755004 -0.4514476 269.2373687 -0.45532391 272.82744789 -0.4768219 C276.72581018 -0.4999946 280.62376276 -0.49192693 284.52218628 -0.48101807 C286.21191112 -0.49849512 286.21191112 -0.49849512 287.93577182 -0.51632524 C296.21920241 -0.45376273 302.6263214 1.41555356 309.75 5.625 C316.55810397 12.81133197 320.36121724 22.67342922 324.4375 31.5625 C325.04667221 32.88013326 325.65621937 34.19759322 326.26611328 35.51489258 C331.95459843 47.8223286 337.5555388 60.17020582 343.15234375 72.51953125 C347.06222973 81.14649298 350.99736342 89.76182042 354.9375 98.375 C355.6071832 99.83927159 356.27686093 101.30354568 356.9465332 102.76782227 C358.96398062 107.1787197 360.98194123 111.58938224 363 116 C365.35317105 121.14303061 367.70611904 126.28616303 370.05841064 131.42959595 C370.72755992 132.89266597 371.39679001 134.35569905 372.06610107 135.81869507 C375.66087999 143.67681214 379.24807207 151.53821959 382.8125 159.41015625 C389.2618129 173.64927623 395.77648594 187.85171954 402.43878174 201.99258423 C407.19071985 212.08214864 411.84341047 222.2126638 416.4375 232.375 C422.24761301 245.22492296 428.20213885 258.00139308 434.22583008 270.75244141 C438.23184767 279.23368218 442.20469847 287.72866548 446.125 296.25 C450.34831745 305.42922931 454.59898702 314.59522956 458.875 323.75 C459.31371429 324.68930359 459.31371429 324.68930359 459.7612915 325.64758301 C461.24645594 328.82705834 462.73202578 332.00634405 464.21777344 335.18554688 C466.85655164 340.83249616 469.49180187 346.48109177 472.12728882 352.12957764 C473.58346111 355.2504924 475.03975551 358.37135017 476.49609375 361.4921875 C476.92892418 362.41972336 476.92892418 362.41972336 477.37049866 363.36599731 C479.13001558 367.13636004 480.89011941 370.9064482 482.65066528 374.67633057 C488.61356182 387.44482537 494.56920074 400.2165529 500.5 413 C510.28189509 434.08054678 520.1140787 455.13670289 530.01766968 476.16033936 C534.73812503 486.18186281 539.44316388 496.21037426 544.125 506.25 C544.41086975 506.8629895 544.6967395 507.475979 544.99127197 508.10754395 C547.27993677 513.01572591 549.5671306 517.92459297 551.85424805 522.83349609 C553.86046387 527.13932462 555.86732269 531.44485272 557.875 535.75 C558.30306442 536.66800385 558.30306442 536.66800385 558.73977661 537.60455322 C563.82881531 548.5155925 568.95498129 559.4089681 574.08734131 570.29968262 C579.11889008 580.97845872 584.10814395 591.67578671 589.06884766 602.38769531 C593.66134715 612.2941916 598.30836139 622.17452407 602.96337891 632.05175781 C607.95039112 642.6340124 612.91300459 653.22724198 617.85321045 663.8314209 C622.56397621 673.94143086 627.30754188 684.03570762 632.0625 694.125 C637.43588328 705.52680757 642.7703105 716.9454516 648.06665039 728.38330078 C652.3417905 737.60594215 656.66541761 746.80518242 661 756 C666.39449582 767.44317967 671.75060722 778.90280762 677.06640625 790.3828125 C681.34166388 799.60560415 685.66571785 808.80483707 690 818 C696.56933256 831.94081109 703.10715475 845.89488177 709.55566406 859.89208984 C710.95040439 862.89328058 712.37342526 865.87936867 713.8046875 868.86328125 C714.64085694 870.63791157 715.47680932 872.41264418 716.3125 874.1875 C716.88182251 875.34451416 716.88182251 875.34451416 717.46264648 876.52490234 C720.41632284 882.87660721 721.15284132 888.60552279 718.875 895.3125 C714.59363703 901.44912026 708.05948413 903.53394311 701 905 C692.78615868 906.18661867 684.53408666 906.21673058 676.25 906.25 C674.34734375 906.2809375 674.34734375 906.2809375 672.40625 906.3125 C663.56204891 906.34859878 655.56300563 905.15959303 647 903 C646.03610352 902.77699219 645.07220703 902.55398438 644.07910156 902.32421875 C631.52147004 899.38594285 619.44541936 893.47741166 609 886 C608.23042969 885.4534375 607.46085938 884.906875 606.66796875 884.34375 C592.23291484 873.42768933 581.01160742 860.12161069 571.078125 845.12646484 C568.75208654 841.62702305 566.39460769 838.15006983 564.03125 834.67578125 C559.6309654 828.20193774 555.24896013 821.71596855 550.87379456 815.22512817 C547.53870235 810.27833887 544.19777982 805.33554995 540.85238647 800.39572144 C524.66450782 776.49102735 508.67581371 752.46291057 492.82821655 728.33137512 C488.7685735 722.15512572 484.67497016 716.00220414 480.56922913 709.85653687 C474.91764928 701.3907144 469.32586509 692.88562005 463.73071289 684.38244629 C455.02182246 671.14839302 446.30635463 657.91944308 437.5 644.75 C431.3501475 635.55035881 425.25323167 626.31768879 419.1875 617.0625 C418.31512559 615.73183817 417.44272947 614.40119057 416.5703125 613.07055664 C416.12692535 612.39426712 415.68353821 611.7179776 415.22671509 611.02119446 C395.26753704 580.57826192 375.17628657 550.23644642 354.7817688 520.08305359 C350.15740202 513.24205757 345.56921807 506.37794407 341 499.5 C331.94472141 485.8729552 322.78506784 472.31651635 313.625 458.75976562 C304.89243608 445.83163473 296.22271856 432.86257505 287.58453369 419.87121582 C285.1714572 416.24262162 282.7521312 412.61842533 280.32055664 409.00219727 C279.55329648 407.85800258 278.78905842 406.71177657 278.02758789 405.5637207 C270.0998219 393.61979526 262.08579507 381.80525659 248 377 C237.36306239 375.46491194 228.7392208 377.82592513 220 384 C215.35552764 387.67548172 211.16693069 391.80144461 207 396 C205.95005859 397.01320313 205.95005859 397.01320313 204.87890625 398.046875 C202.0946612 400.75050716 199.50361791 403.55794544 196.9921875 406.515625 C191.81747489 412.45408762 186.14818021 417.9102057 180.54296875 423.43652344 C175.44317083 428.47102745 170.45726312 433.53225312 165.796875 438.98046875 C161.25287232 444.08753263 156.25059903 448.782992 151.3828125 453.578125 C147.64500043 457.28185368 143.9552513 460.97071306 140.53125 464.96875 C135.30115149 471.06849018 129.45584983 476.58595852 123.73828125 482.22265625 C119.2549902 486.66713093 114.92801998 491.14898259 110.81933594 495.94042969 C87.21783229 522.65839597 58.53500222 544.80846926 22 549 C16.66344298 549.31553183 11.34342995 549.39000474 6 549.375 C5.27144806 549.37445618 4.54289612 549.37391235 3.79226685 549.37335205 C-7.8593935 549.33341026 -18.83474037 548.51986779 -30 545 C-30.66628418 544.79632812 -31.33256836 544.59265625 -32.01904297 544.3828125 C-40.5208158 541.7039169 -48.45431228 537.9382293 -56.375 533.875 C-57.20257813 533.45524902 -58.03015625 533.03549805 -58.8828125 532.60302734 C-59.65109375 532.1952002 -60.419375 531.78737305 -61.2109375 531.3671875 C-61.89462402 531.00737793 -62.57831055 530.64756836 -63.28271484 530.27685547 C-65.32589516 528.75768671 -66.0400115 527.32964579 -67 525 C-57.50670943 511.79578263 -47.89547103 498.68262021 -38.22949219 485.60449219 C-31.94498265 477.09906265 -25.67980365 468.58191379 -19.5 460 C-13.31898737 451.41640731 -7.05214333 442.89798751 -0.76611328 434.39111328 C2.15956094 430.43008849 5.07957278 426.46489406 8 422.5 C11.50888924 417.73618529 15.01897803 412.97328202 18.53515625 408.21484375 C24.76917008 399.77409937 30.97030841 391.31232194 37.08813477 382.78686523 C39.93554349 378.82674603 42.81668911 374.897027 45.75 371 C46.68875977 369.74703125 46.68875977 369.74703125 47.64648438 368.46875 C48.83902049 366.88037735 50.03776148 365.29663448 51.24414062 363.71875 C55.84367532 357.5788306 60.21615034 351.0617664 61.6875 343.4375 C60.01030784 335.05153922 54.32768946 330.12951808 47.76953125 325.14453125 C22.64478089 305.68968224 4.44589738 276.76735568 -0.28540039 245.08911133 C-1.25706804 236.79431796 -1.18608168 228.47168645 -1.18530273 220.13232422 C-1.18749497 217.50602132 -1.20572093 214.88013552 -1.22460938 212.25390625 C-1.27565544 197.373183 -1.27565544 197.373183 0.43798828 190.41918945 C1.14759164 187.36468914 1.55277921 184.30652201 1.97265625 181.19921875 C2.60661983 176.61427041 3.32488126 172.06773206 4.18359375 167.51953125 C12.65270079 122.61955554 16.79057448 72.38520247 4 28 C3.6263862 26.60257879 3.25669533 25.20410375 2.890625 23.8046875 C1.09656936 16.85828964 1.09656936 16.85828964 -1 10 C-1.13156527 6.31617231 -1.16982138 3.50946415 0 0 Z " fill="#1A1A1A" transform="translate(333,206)"/>
        <path d="M0 0 C3.65760983 3.48374457 6.596004 7.02543724 9.5 11.1875 C10.37954751 12.43926667 11.25979036 13.69054497 12.140625 14.94140625 C12.60404297 15.60156738 13.06746094 16.26172852 13.54492188 16.94189453 C15.54966479 19.77746211 17.59034129 22.58629203 19.63110352 25.39599609 C26.05584109 34.24200032 32.35045232 43.17406154 38.60546875 52.140625 C41.6775586 56.54392492 44.77263898 60.93050049 47.875 65.3125 C53.90550747 73.83943711 59.86764541 82.41350032 65.82421875 90.9921875 C68.65265145 95.06518392 71.48922658 99.13233486 74.33203125 103.1953125 C75.04069336 104.20964355 75.74935547 105.22397461 76.47949219 106.26904297 C77.82081142 108.18858209 79.1637814 110.10696931 80.50878906 112.02392578 C94.13718476 131.54847074 94.13718476 131.54847074 94.25 137.6875 C94.27578125 138.51636719 94.3015625 139.34523438 94.328125 140.19921875 C93.59891383 146.42355697 90.47460107 151.03566944 86.625 155.8125 C82.52565025 160.98781459 78.59593363 166.25871619 74.75 171.625 C70.2256227 177.92449504 65.66827453 184.1972317 61.0625 190.4375 C60.48218018 191.22390869 59.90186035 192.01031738 59.30395508 192.82055664 C56.94687428 196.0130007 54.58815032 199.20422905 52.22949219 202.39550781 C45.94498265 210.90093735 39.67980365 219.41808621 33.5 228 C26.15975779 238.19341866 18.69545642 248.29401291 11.22949219 258.39550781 C4.94498265 266.90093735 -1.32019635 275.41808621 -7.5 284 C-14.84024221 294.19341866 -22.30454358 304.29401291 -29.77050781 314.39550781 C-36.05501735 322.90093735 -42.32019635 331.41808621 -48.5 340 C-55.84024221 350.19341866 -63.30454358 360.29401291 -70.77050781 370.39550781 C-77.05501735 378.90093735 -83.32019635 387.41808621 -89.5 396 C-95.68101263 404.58359269 -101.94785667 413.10201249 -108.23388672 421.60888672 C-111.15956103 425.56991162 -114.07950306 429.53515717 -117 433.5 C-118.1666389 435.08335379 -119.33330558 436.66668712 -120.5 438.25 C-121.36625 439.425625 -121.36625 439.425625 -122.25 440.625 C-128.66666667 449.33333333 -135.08333333 458.04166667 -141.5 466.75 C-142.07830566 467.5352002 -142.65661133 468.32040039 -143.25244141 469.12939453 C-144.4095915 470.6990966 -145.56810213 472.2677967 -146.72802734 473.83544922 C-149.80269146 477.9947793 -152.84600208 482.17321278 -155.8515625 486.3828125 C-156.48320312 487.26001953 -157.11484375 488.13722656 -157.765625 489.04101562 C-158.98009445 490.72877096 -160.18622675 492.42256557 -161.3828125 494.12304688 C-162.20265625 495.25709961 -162.20265625 495.25709961 -163.0390625 496.4140625 C-163.51553223 497.0838916 -163.99200195 497.7537207 -164.48291016 498.44384766 C-166.30634751 500.31423544 -167.41292549 500.75918696 -170 501 C-193.68346799 488.79643524 -208.50055178 463.86437937 -216.65673828 439.45800781 C-217.8623311 435.66253924 -218.96055132 431.8439811 -220 428 C-220.40025391 426.54787109 -220.40025391 426.54787109 -220.80859375 425.06640625 C-226.91150506 398.08732933 -217.60066383 372.85957729 -204 350 C-203.33484375 348.87980469 -202.6696875 347.75960938 -201.984375 346.60546875 C-200.55947661 344.22610597 -199.13003206 341.849971 -197.6953125 339.4765625 C-183.36428484 315.7321255 -169.4440625 291.73839732 -155.60302734 267.70629883 C-151.44872311 260.49723274 -147.26423907 253.3065012 -143.0625 246.125 C-135.96635911 233.98712824 -128.99376932 221.77975244 -122.03222656 209.56445312 C-119.02529256 204.28906705 -116.01140383 199.01765562 -112.99798584 193.74597168 C-111.3317007 190.83081342 -109.66587373 187.91539337 -108 185 C-107.33333552 183.83333208 -106.66666886 182.66666541 -106 181.5 C-105.67 180.9225 -105.34 180.345 -105 179.75 C-53.99999999 90.49999999 -53.99999999 90.49999999 -53.00004578 88.75009155 C-52.33321338 87.58312722 -51.66639413 86.41615538 -50.99958801 85.24917603 C-49.33556468 82.33700194 -47.67131491 79.42495772 -46.0065918 76.51318359 C-42.63082121 70.60802596 -39.25914534 64.70058468 -35.89453125 58.7890625 C-11.90735814 16.65598393 -11.90735814 16.65598393 0 0 Z " fill="#1A1A1A" transform="translate(579,614)"/>
    </symbol>

</svg>
